#N canvas 261 352 450 300 12;
#X obj 291 515 outlet;
#X obj 172 135 hradio 19 1 0 9 empty empty reageerimiskiirus 0 -10 0 12 #fcfcfc #000000 #000000 0;
#X obj 57 511 outlet;
#X obj 52 230 inlet;
#X obj 59 171 + 1;
#X obj 59 192 * 100;
#X obj 96 383 > 0.1;
#X obj 96 445 &&, f 17;
#X obj 57 477 spigot;
#X obj 180 159 hsl 162 19 0 1 0 0 empty empty A\ min -15 10 0 15 #fcfcfc #000000 #000000 0 1;
#X obj 292 229 inlet, f 6;
#X obj 96 406 delay 100;
#X obj 212 232 inlet;
#X obj 213 406 > 0.1;
#X obj 181 186 hsl 162 19 0 1 0 0 empty empty B\ min -15 10 0 15 #fcfcfc #000000 #000000 0 1;
#X floatatom 294 114 5 0 0 1 ms - - 0;
#X text 300 250 aeg, f 5;
#X obj 95 360 spigot;
#X obj 105 288 select 100;
#X obj 105 316 t 1;
#X obj 134 338 t 0;
#X text 45 511 comment;
#X text 38 230 A;
#X text 197 232 B;
#X obj 134 311 select 102;
#X connect 1 0 4 0;
#X connect 3 0 17 0;
#X connect 3 0 8 0;
#X connect 4 0 5 0;
#X connect 5 0 11 1;
#X connect 5 0 15 0;
#X connect 6 0 11 0;
#X connect 7 0 8 1;
#X connect 8 0 2 0;
#X connect 9 0 6 1;
#X connect 10 0 18 0;
#X connect 10 0 0 0;
#X connect 10 0 24 0;
#X connect 11 0 7 0;
#X connect 12 0 13 0;
#X connect 13 0 7 1;
#X connect 14 0 13 1;
#X connect 17 0 6 0;
#X connect 18 0 19 0;
#X connect 19 0 17 1;
#X connect 20 0 17 1;
#X connect 24 0 20 0;
