#N canvas 290 457 450 300 12;
#X obj 211 193 vradio 19 1 0 3 empty empty empty 0 -10 0 12 #dfdfdf #000000 #000000 0;
#N canvas 779 108 483 513 jooned 0;
#X msg 32 248 width \$1;
#X msg 103 248 color \$1;
#X obj 37 436 outlet;
#X msg 294 244 style \$1;
#X obj 32 22 inlet;
#X obj 294 18 inlet;
#X obj 228 18 inlet;
#X obj 152 120 t b f;
#X obj 103 120 t b f;
#X obj 101 170 expr 100*int(8*$f1/255) + 10*int(8*$f2/255) + int(8*$f3/255), f 25;
#X obj 98 18 inlet;
#X obj 168 18 inlet;
#X obj 32 49 + 1;
#X connect 0 0 2 0;
#X connect 1 0 2 0;
#X connect 3 0 2 0;
#X connect 4 0 12 0;
#X connect 5 0 3 0;
#X connect 6 0 7 0;
#X connect 7 0 9 0;
#X connect 7 1 9 2;
#X connect 8 0 9 0;
#X connect 8 1 9 1;
#X connect 9 0 1 0;
#X connect 10 0 9 0;
#X connect 11 0 8 0;
#X connect 12 0 0 0;
#X restore 109 294 pd jooned;
#X f 15;
#X obj 184 121 vsl 15 128 0 255 0 0 empty empty empty 0 -9 0 10 #0800fc #fcfcfc #000000 0 1;
#X obj 160 121 vsl 15 128 0 255 0 0 empty empty empty 0 -9 0 10 #00fc00 #000000 #000000 0 1;
#X obj 134 121 vsl 15 128 0 255 0 0 empty empty empty 0 -9 0 10 #fc0000 #000000 #000000 0 1;
#X obj 108 119 vradio 15 1 0 9 empty empty empty 0 -10 0 12 #fcfcfc #000000 #000000 0;
#X obj 110 332 outlet;
#X msg 239 299 edit \$1;
#X obj 210 119 tgl 19 0 empty empty empty 0 -10 0 12 #fcfcfc #000000 #000000 0 1;
#X connect 0 0 1 4;
#X connect 1 0 6 0;
#X connect 2 0 1 3;
#X connect 3 0 1 2;
#X connect 4 0 1 1;
#X connect 5 0 1 0;
#X connect 7 0 6 0;
#X connect 8 0 7 0;
