#N canvas 464 124 450 300 12;
#N canvas 529 64 911 588 CPU_koormus 0;
#X floatatom 258 107 5 0 0 0 - - - 0;
#X obj 303 122 cputime;
#X obj 303 2 loadbang;
#X obj 303 46 metro 1000;
#X obj 303 182 * 0.1;
#X obj 303 151 int;
#X obj 239 107 tgl 17 0 empty empty empty 17 7 0 10 #dcdcdc #000000 #000000 0 1;
#X obj 204 243 outlet;
#X obj 303 94 t b b b b;
#X obj 297 263 outlet;
#X connect 0 0 7 0;
#X connect 1 0 5 0;
#X connect 2 0 6 0;
#X connect 3 0 8 0;
#X connect 4 0 0 0;
#X connect 5 0 4 0;
#X connect 6 0 3 0;
#X connect 8 0 1 0;
#X connect 8 1 1 1;
#X connect 8 2 9 0;
#X coords 0 -1 1 1 200 30 1 100 100;
#X restore 105 188 pd CPU_koormus;
#N canvas 58 226 450 278 (subpatch) 0;
#X array cpu1min 60 float 3;
#A 0 27 27 27 27 28 28 27 27 27 27 27 28 27 27 28 28 27 28 29 28 28 30 28 28 29 31 28 29 30 29 30 29 29 29 30 30 30 31 29 29 30 30 30 30 30 31 23 32 30 29 30 28 28 27 28 27 28 28 27 26;
#X coords 0 300 60 0 201 64 1 0 0;
#X restore 105 120 graph;
#N canvas 990 139 450 300 cpu1min_w 0;
#X obj 1 70 inlet;
#X obj 57 72 inlet;
#X obj -16 249 tabwrite cpu1min;
#X obj -17 208 f;
#X obj 60 216 t b f;
#X floatatom 237 107 5 0 0 0 - - - 0;
#X obj 57 128 + 1;
#X obj 57 97 i;
#X obj 58 159 mod 60;
#X connect 0 0 3 1;
#X connect 1 0 7 0;
#X connect 3 0 2 0;
#X connect 4 0 3 0;
#X connect 4 1 2 1;
#X connect 6 0 8 0;
#X connect 6 0 7 1;
#X connect 7 0 6 0;
#X connect 8 0 5 0;
#X connect 8 0 4 0;
#X coords 0 -1 1 1 180 30 1 100 100;
#X restore 125 224 pd cpu1min_w;
#X obj 105 263 outlet;
#X connect 0 0 2 0;
#X connect 0 0 3 0;
#X connect 0 1 2 1;
#X coords 0 -1 1 1 210 120 1 100 100;
