#N canvas 435 95 742 474 12;
#X declare -lib Gem;
#X obj 107 191 tgl 22 0 \$0-gemstart \$0-gemstart Render 25 12 0 15 #fcfcfc #000000 #000000 0 1;
#X obj 102 241 r \$0-gemstart;
#X obj 102 262 select 1 0;
#X msg 102 294 create \, 1;
#X msg 177 295 destroy;
#X obj 102 319 t a;
#X obj 318 54 inlet;
#X obj 318 255 gemwin;
#X obj 318 100 t a a;
#X obj 318 287 outlet;
#X obj 350 128 route create destroy;
#X obj 350 150 t b;
#X msg 350 172 1;
#X obj 390 150 t b;
#X msg 390 172 0;
#X obj 350 195 t f;
#X msg 350 219 set \$1;
#X msg 401 11 reset \, dimen 1280 720;
#X msg 411 31 reset \, dimen 640 360;
#X obj 184 130 bng 19 250 50 0 empty empty 1280x720 25 11 0 12 #fcfcfc #000000 #000000;
#X obj 184 174 bng 19 250 50 0 empty empty 640x360 25 11 0 12 #fcfcfc #000000 #000000;
#X obj 184 107 bng 19 250 50 0 empty empty 1920x1080 25 11 0 12 #fcfcfc #000000 #000000;
#X obj 184 152 bng 19 250 50 0 empty empty 960x540 25 11 0 12 #fcfcfc #000000 #000000;
#X msg 401 -39 reset \, dimen 1920 1080;
#X msg 411 -19 reset \, dimen 960 540;
#X obj 219 12 loadbang;
#X obj 44 1 declare -lib Gem;
#X connect 1 0 2 0;
#X connect 2 0 3 0;
#X connect 2 1 4 0;
#X connect 3 0 5 0;
#X connect 4 0 5 0;
#X connect 5 0 8 0;
#X connect 6 0 8 0;
#X connect 7 0 9 0;
#X connect 8 0 7 0;
#X connect 8 1 10 0;
#X connect 10 0 11 0;
#X connect 10 1 13 0;
#X connect 11 0 12 0;
#X connect 12 0 15 0;
#X connect 13 0 14 0;
#X connect 14 0 15 0;
#X connect 15 0 16 0;
#X connect 16 0 0 0;
#X connect 17 0 7 0;
#X connect 18 0 7 0;
#X connect 19 0 17 0;
#X connect 20 0 18 0;
#X connect 21 0 23 0;
#X connect 22 0 24 0;
#X connect 23 0 7 0;
#X connect 24 0 7 0;
#X connect 25 0 22 0;
