#N canvas 368 180 594 460 12;
#X obj 14 114 gemhead 10;
#X obj 103 235 pix_video;
#X floatatom 145 95 4 0 0 0 W - - 0;
#X floatatom 145 117 4 0 0 0 H - - 0;
#X obj 104 307 outlet;
#X obj 103 265 pix_flip horizontal;
#X obj 105 101 tgl 16 1 empty empty empty 0 -8 0 10 #fcfcfc #000000 #000000 1 1;
#X obj 140 68 unpack;
#X floatatom 222 140 2 0 0 1 byte - - 0;
#X obj -34 -6 pix_info -m \; symbolic 1, f 25;
#X symbolatom 144 140 10 0 0 0 - - - 0;
#X obj 139 40 route dimen bytes/pixel format;
#X obj 276 68 symbol;
#X obj 70 45 vradio 16 1 0 3 empty empty empty 0 -8 0 10 #fcfcfc #000000 #000000 0;
#X msg 110 213 device \$1;
#X obj 105 71 inlet;
#X msg 284 235 none;
#X msg 284 255 horizontal;
#X msg 284 275 vertical;
#X msg 284 295 both;
#X obj 214 97 hradio 16 1 0 4 empty empty empty 0 -8 0 10 #fcfcfc #000000 #000000 0;
#X obj 285 208 sel 0 1 2 3;
#X listbox 181 118 15 0 0 2 flip - - 0;
#X obj 233 207 symbol;
#X connect 0 0 1 0;
#X connect 1 0 5 0;
#X connect 1 0 9 0;
#X connect 5 0 4 0;
#X connect 6 0 0 0;
#X connect 7 0 2 0;
#X connect 7 1 3 0;
#X connect 9 1 11 0;
#X connect 11 0 7 0;
#X connect 11 1 8 0;
#X connect 11 2 12 0;
#X connect 12 0 10 0;
#X connect 13 0 14 0;
#X connect 14 0 1 0;
#X connect 15 0 6 0;
#X connect 16 0 5 0;
#X connect 16 0 23 0;
#X connect 17 0 5 0;
#X connect 17 0 23 0;
#X connect 18 0 5 0;
#X connect 18 0 23 0;
#X connect 19 0 5 0;
#X connect 19 0 23 0;
#X connect 20 0 21 0;
#X connect 21 0 16 0;
#X connect 21 1 17 0;
#X connect 21 2 18 0;
#X connect 21 3 19 0;
#X connect 23 0 22 0;
#X coords 0 -1 1 1 85 60 1 100 100;
