#N canvas 754 440 1440 900 12;
#X obj -33 190 pix_movement 0.5;
#X obj -35 325 alpha;
#X obj -21 280 tgl 15 1 empty empty alpha 20 8 0 12 #fcfcfc #000000 #000000 1 1;
#X obj -36 568 outlet;
#X obj -35 348 pix_blob 4, f 41;
#X obj 143 194 hradio 19 1 0 9 empty empty reageerimiskiirus 0 -10 0 12 #fcfcfc #000000 #000000 0;
#X obj 59 568 outlet;
#X obj 154 569 outlet;
#X obj 248 565 outlet;
#X obj -33 -14 separator;
#X obj -33 -43 inlet;
#X text 47 568 X;
#X text 143 571 Y;
#X text 237 565 Z;
#X obj 109 120 hsl 162 19 0 1 0 0 empty empty TUNDLIKUS 50 10 0 12 #fcfcfc #000000 #000000 0 1;
#X obj 59 446 line;
#X obj 302 404 + 1;
#X obj 59 422 pack f f;
#X obj 154 476 line;
#X obj 154 454 pack f f;
#X obj 249 490 line;
#X obj 249 468 pack f f;
#X obj 302 446 * 2;
#X obj -33 154 pix_rgba;
#X obj 278 120 tgl 19 0 empty empty RGBA 22 11 0 12 #fcfcfc #000000 #000000 0 1;
#X obj 59 375 clip 0 1;
#X obj 154 375 clip 0 1;
#X obj 248 375 clip 0 1;
#X obj 148 252 hsl 162 19 0 1 0 0 empty empty X -15 10 0 15 #fcfcfc #000000 #000000 0 1;
#X obj 150 225 hsl 162 19 0 1 0 0 empty empty Z -15 10 0 15 #fcfcfc #000000 #000000 0 1;
#X obj 18 69 loadbang;
#X msg 53 93 0.5;
#X obj 112 175 vsl 19 65 0 2 0 0 empty empty Z\ GAIN 0 -9 0 12 #fcfcfc #000000 #000000 0 1;
#X obj 316 109 vsl 20 160 1 0 0 0 empty empty Y 5 15 0 15 #fcfcfc #000000 #000000 0 1;
#X obj 302 425 * 100;
#X floatatom 271 172 3 0 0 1 ms - - 12;
#X floatatom 160 154 5 0 0 0 - - - 0;
#X floatatom 274 275 5 0 0 0 Z - - 0;
#X floatatom 216 275 5 0 0 0 Y - - 0;
#X floatatom 158 275 5 0 0 0 X - - 0;
#X obj 408 -37 inlet;
#X obj 408 -13 outlet;
#X text 470 -22 aeg;
#X msg 18 93 1;
#X obj 249 539 * 200;
#X connect 0 0 1 0;
#X connect 1 0 4 0;
#X connect 2 0 1 0;
#X connect 4 0 3 0;
#X connect 4 1 25 0;
#X connect 4 2 26 0;
#X connect 4 3 27 0;
#X connect 5 0 16 0;
#X connect 9 0 23 0;
#X connect 10 0 9 0;
#X connect 14 0 0 1;
#X connect 15 0 6 0;
#X connect 15 0 28 0;
#X connect 15 0 39 0;
#X connect 16 0 34 0;
#X connect 17 0 15 0;
#X connect 18 0 7 0;
#X connect 18 0 33 0;
#X connect 18 0 38 0;
#X connect 19 0 18 0;
#X connect 20 0 44 0;
#X connect 21 0 20 0;
#X connect 22 0 21 1;
#X connect 23 0 0 0;
#X connect 24 0 23 0;
#X connect 25 0 17 0;
#X connect 26 0 19 0;
#X connect 27 0 21 0;
#X connect 30 0 43 0;
#X connect 31 0 14 0;
#X connect 32 0 36 0;
#X connect 32 0 44 1;
#X connect 34 0 17 1;
#X connect 34 0 19 1;
#X connect 34 0 22 0;
#X connect 34 0 35 0;
#X connect 40 0 41 0;
#X connect 43 0 32 0;
#X connect 44 0 8 0;
#X connect 44 0 29 0;
#X connect 44 0 37 0;
