#N canvas 358 132 843 663 12;
#X obj 22 561 outlet;
#X obj 104 195 hradio 19 1 0 9 empty empty reageerimiskiirus 0 -10 0 12 #fcfcfc #000000 #000000 0;
#X obj 88 558 outlet;
#X obj 185 559 outlet;
#X obj 289 560 outlet;
#X obj 36 -13 inlet;
#X text 74 561 X;
#X text 174 561 Y;
#X text 277 561 Z;
#X obj 109 150 hsl 162 19 0 1 0 0 empty empty TUNDLIKUS 50 10 0 12 #fcfcfc #000000 #000000 0 1;
#X obj 95 406 line;
#X obj 104 226 + 1;
#X obj 94 382 pack f f;
#X obj 106 251 * 30;
#X obj 135 436 line;
#X obj 135 414 pack f f;
#X obj 217 450 line;
#X obj 217 428 pack f f;
#X obj 217 476 * 100;
#X obj 268 400 * 2;
#X obj 37 70 pix_movement2 0.5;
#X obj 109 126 hsl 162 19 0 1 0 0 empty empty TUNDLIKUS 50 10 0 12 #fcfcfc #000000 #000000 0 1;
#X obj 43 128 + 0.05;
#X obj 55 348 pix_blob, f 17;
#X obj 253 104 bng 19 250 50 0 empty empty set -30 10 0 12 #fcfcfc #000000 #000000;
#X connect 1 0 11 0;
#X connect 5 0 20 0;
#X connect 9 0 20 1;
#X connect 9 0 22 0;
#X connect 10 0 2 0;
#X connect 11 0 13 0;
#X connect 12 0 10 0;
#X connect 13 0 12 1;
#X connect 13 0 15 1;
#X connect 13 0 19 0;
#X connect 14 0 3 0;
#X connect 15 0 14 0;
#X connect 16 0 18 0;
#X connect 17 0 16 0;
#X connect 18 0 4 0;
#X connect 19 0 17 1;
#X connect 20 0 23 0;
#X connect 21 0 20 2;
#X connect 22 0 21 0;
#X connect 23 0 0 0;
#X connect 23 1 12 0;
#X connect 23 2 15 0;
#X connect 23 3 17 0;
#X connect 24 0 20 0;
