#N canvas 411 434 450 300 12;
#X msg 67 64 connect localhost 7700;
#X obj 107 178 tgl 19 0 empty empty empty 0 -10 0 12 #fcfcfc #000000 #000000 0 1;
#X msg 85 88 disconnect;
#X obj 107 132 oscformat Slider 0;
#X obj 107 155 netsend -u -b;
#X obj 314 39 vsl 19 162 0 127 0 0 empty empty empty 0 -9 0 12 #fcfcfc #000000 #000000 0 1;
#X listbox 158 221 20 0 0 0 - - - 0;
#X obj 158 195 oscparse;
#X connect 0 0 4 0;
#X connect 2 0 4 0;
#X connect 3 0 4 0;
#X connect 3 0 7 0;
#X connect 4 0 1 0;
#X connect 5 0 3 0;
#X connect 7 0 6 0;
