#N canvas 0 25 1440 771 12;
#X declare -lib Gem;
#X obj 358 62 declare -lib Gem;
#N canvas 529 64 911 588 CPU_koormus 0;
#X floatatom 258 107 5 0 0 0 - - - 0;
#X obj 303 122 cputime;
#X obj 303 2 loadbang;
#X obj 303 46 metro 1000;
#X obj 303 182 * 0.1;
#X obj 303 151 int;
#X obj 239 107 tgl 17 0 empty empty empty 17 7 0 10 #dcdcdc #000000 #000000 0 1;
#X obj 204 243 outlet;
#X obj 303 94 t b b b b;
#X obj 297 263 outlet;
#X connect 0 0 7 0;
#X connect 1 0 5 0;
#X connect 2 0 6 0;
#X connect 3 0 8 0;
#X connect 4 0 0 0;
#X connect 5 0 4 0;
#X connect 6 0 3 0;
#X connect 8 0 1 0;
#X connect 8 1 1 1;
#X connect 8 2 9 0;
#X coords 0 -1 1 1 200 30 1 100 100;
#X restore 113 129 pd CPU_koormus;
#X obj 294 202 tgl 30 0 empty empty empty 0 -10 0 12 #fcfcfc #000000 #000000 0 1;
#N canvas 555 99 450 300 tabwrite:a1/a2/a3/a4 0;
#X obj 194 293 tabwrite a1;
#X msg 93 218 set a2;
#X msg 111 240 set a3;
#X msg 133 265 set a4;
#X msg 74 191 set a1;
#X obj 312 187 t b f;
#X obj 312 212 f;
#X obj 287 118 inlet;
#X obj 348 118 inlet;
#X obj 106 121 hradio 19 1 0 4 empty empty empty 0 -10 0 12 #fcfcfc #000000 #000000 0;
#X obj 75 158 sel 0 1 2 3;
#X text 288 95 data;
#X text 345 95 index;
#X connect 1 0 0 0;
#X connect 2 0 0 0;
#X connect 3 0 0 0;
#X connect 4 0 0 0;
#X connect 5 0 6 0;
#X connect 5 1 0 1;
#X connect 6 0 0 0;
#X connect 7 0 6 1;
#X connect 8 0 5 0;
#X connect 9 0 10 0;
#X connect 10 0 4 0;
#X connect 10 1 1 0;
#X connect 10 2 2 0;
#X connect 10 3 3 0;
#X coords 0 -1 1 1 177 45 1 100 100;
#X restore 113 211 pd tabwrite:a1/a2/a3/a4;
#N canvas 342 99 515 599 0-250 0;
#X obj 65 3 inlet;
#X obj 61 223 outlet;
#X msg 45 94 0;
#X obj 74 123 i;
#X obj 101 123 + 1;
#X obj 34 69 sel 0;
#X obj 74 148 mod 250;
#X obj 75 96 metro 80;
#X connect 0 0 5 0;
#X connect 0 0 7 0;
#X connect 2 0 3 0;
#X connect 3 0 4 0;
#X connect 3 0 6 0;
#X connect 4 0 3 1;
#X connect 5 0 2 0;
#X connect 6 0 1 0;
#X connect 7 0 3 0;
#X restore 294 235 pd 0-250;
#N canvas 168 25 1272 771 movement 0;
#X obj -33 190 pix_movement 0.5;
#X obj -35 325 alpha;
#X obj -21 280 tgl 15 1 empty empty alpha 20 8 0 12 #fcfcfc #000000 #000000 1 1;
#X obj -36 568 outlet;
#X obj -35 348 pix_blob 4, f 41;
#X obj 143 194 hradio 19 1 0 9 empty empty reageerimiskiirus 0 -10 0 12 #fcfcfc #000000 #000000 0;
#X obj 59 568 outlet;
#X obj 154 569 outlet;
#X obj 248 565 outlet;
#X obj -33 -14 separator;
#X obj -33 -43 inlet;
#X text 47 568 X;
#X text 143 571 Y;
#X text 237 565 Z;
#X obj 109 120 hsl 162 19 0 1 0 0 empty empty TUNDLIKUS 50 10 0 12 #fcfcfc #000000 #000000 0 1;
#X obj 59 446 line;
#X obj 302 404 + 1;
#X obj 59 422 pack f f;
#X obj 154 476 line;
#X obj 154 454 pack f f;
#X obj 249 490 line;
#X obj 249 468 pack f f;
#X obj 302 446 * 2;
#X obj -33 154 pix_rgba;
#X obj 278 120 tgl 19 0 empty empty RGBA 22 11 0 12 #fcfcfc #000000 #000000 0 1;
#X obj 59 375 clip 0 1;
#X obj 154 375 clip 0 1;
#X obj 248 375 clip 0 1;
#X obj 148 252 hsl 162 19 0 1 0 0 empty empty X -15 10 0 15 #fcfcfc #000000 #000000 0 1;
#X obj 150 225 hsl 162 19 0 1 0 0 empty empty Z -15 10 0 15 #fcfcfc #000000 #000000 0 1;
#X msg 18 93 0;
#X obj 18 69 loadbang;
#X msg 53 93 0.5;
#X obj 112 175 vsl 19 65 -10 10 0 0 empty empty Z\ GAIN 0 -9 0 12 #fcfcfc #000000 #000000 0 1;
#X obj 316 109 vsl 20 160 1 0 0 0 empty empty Y 5 15 0 15 #fcfcfc #000000 #000000 0 1;
#X obj 302 425 * 100;
#X obj 201 844 <;
#X obj 369 844 &;
#X obj 407 844 |;
#X obj 164 844 >=;
#X obj 276 844 ==;
#X obj 238 844 <=;
#X obj 369 779 t b f;
#X floatatom 489 881 7 0 0 0 - - - 0;
#X obj 489 844 <<;
#X obj 447 844 >>;
#X obj 315 844 !=;
#X floatatom 124 809 5 0 0 0 - - - 0;
#X floatatom 407 881 4 0 0 0 - - - 0;
#X floatatom 369 881 4 0 0 0 - - - 0;
#X floatatom 447 881 4 0 0 0 - - - 0;
#X text 45 747 left input;
#X obj 201 881 tgl 19 0 empty empty empty 17 7 0 10 #dfdfdf #000000 #000000 0 1;
#X obj 164 881 tgl 19 0 empty empty empty 17 7 0 10 #dfdfdf #000000 #000000 0 1;
#X obj 276 881 tgl 19 0 empty empty empty 17 7 0 10 #dfdfdf #000000 #000000 0 1;
#X obj 238 881 tgl 19 0 empty empty empty 17 7 0 10 #dfdfdf #000000 #000000 0 1;
#X obj 315 881 tgl 19 0 empty empty empty 17 7 0 10 #dfdfdf #000000 #000000 0 1;
#X floatatom 271 172 3 0 0 1 ms - - 12;
#X floatatom 160 154 5 0 0 0 - - - 0;
#X obj 249 539 * 100;
#X floatatom 274 275 5 0 0 0 Z - - 0;
#X floatatom 216 275 5 0 0 0 Y - - 0;
#X floatatom 158 275 5 0 0 0 X - - 0;
#X obj 408 -37 inlet;
#X obj 408 -13 outlet;
#X text 470 -22 aeg;
#X msg 362 740 2;
#X msg 203 721 2;
#X msg 192 700 3;
#X msg 213 741 1;
#X msg 122 700 3.33;
#X msg 133 721 2.2;
#X msg 143 741 1.001;
#X connect 0 0 1 0;
#X connect 1 0 4 0;
#X connect 2 0 1 0;
#X connect 4 0 3 0;
#X connect 4 1 25 0;
#X connect 4 2 26 0;
#X connect 4 3 27 0;
#X connect 5 0 16 0;
#X connect 9 0 23 0;
#X connect 10 0 9 0;
#X connect 14 0 0 1;
#X connect 15 0 6 0;
#X connect 15 0 28 0;
#X connect 15 0 62 0;
#X connect 16 0 35 0;
#X connect 17 0 15 0;
#X connect 18 0 7 0;
#X connect 18 0 34 0;
#X connect 18 0 61 0;
#X connect 19 0 18 0;
#X connect 20 0 59 0;
#X connect 21 0 20 0;
#X connect 22 0 21 1;
#X connect 23 0 0 0;
#X connect 24 0 23 0;
#X connect 25 0 17 0;
#X connect 26 0 19 0;
#X connect 27 0 21 0;
#X connect 31 0 30 0;
#X connect 32 0 14 0;
#X connect 33 0 58 0;
#X connect 33 0 59 1;
#X connect 35 0 17 1;
#X connect 35 0 19 1;
#X connect 35 0 22 0;
#X connect 35 0 57 0;
#X connect 36 0 52 0;
#X connect 37 0 49 0;
#X connect 38 0 48 0;
#X connect 39 0 53 0;
#X connect 40 0 54 0;
#X connect 41 0 55 0;
#X connect 42 0 46 0;
#X connect 42 0 45 0;
#X connect 42 0 44 0;
#X connect 42 0 41 0;
#X connect 42 0 40 0;
#X connect 42 0 39 0;
#X connect 42 0 38 0;
#X connect 42 0 37 0;
#X connect 42 0 36 0;
#X connect 42 1 37 1;
#X connect 42 1 38 1;
#X connect 42 1 44 1;
#X connect 42 1 45 1;
#X connect 42 1 39 1;
#X connect 42 1 40 1;
#X connect 42 1 46 1;
#X connect 42 1 41 1;
#X connect 42 1 36 1;
#X connect 44 0 43 0;
#X connect 45 0 50 0;
#X connect 46 0 56 0;
#X connect 47 0 37 0;
#X connect 47 0 38 0;
#X connect 47 0 44 0;
#X connect 47 0 45 0;
#X connect 47 0 39 0;
#X connect 47 0 40 0;
#X connect 47 0 41 0;
#X connect 47 0 36 0;
#X connect 47 0 46 0;
#X connect 59 0 8 0;
#X connect 59 0 29 0;
#X connect 59 0 60 0;
#X connect 63 0 64 0;
#X connect 66 0 42 0;
#X connect 67 0 47 0;
#X connect 68 0 47 0;
#X connect 69 0 47 0;
#X connect 70 0 47 0;
#X connect 71 0 47 0;
#X connect 72 0 47 0;
#X coords 0 -1 1 1 240 200 1 100 100;
#X restore -265 297 pd movement;
#N canvas 340 107 682 322 gemwin 0;
#X obj 107 191 tgl 22 0 \$0-gemstart \$0-gemstart Render 25 12 0 15 #fcfcfc #000000 #000000 0 1;
#X obj 102 241 r \$0-gemstart;
#X obj 102 262 select 1 0;
#X msg 102 294 create \, 1;
#X msg 177 295 destroy;
#X obj 102 319 t a;
#X obj 318 54 inlet;
#X obj 318 255 gemwin;
#X obj 318 100 t a a;
#X obj 318 287 outlet;
#X obj 350 128 route create destroy;
#X obj 350 150 t b;
#X msg 350 172 1;
#X obj 390 150 t b;
#X msg 390 172 0;
#X obj 350 195 t f;
#X msg 350 219 set \$1;
#X msg 401 11 reset \, dimen 1280 720;
#X msg 411 31 reset \, dimen 640 360;
#X obj 184 130 bng 19 250 50 0 empty empty 1280x720 25 11 0 12 #fcfcfc #000000 #000000;
#X obj 184 174 bng 19 250 50 0 empty empty 640x360 25 11 0 12 #fcfcfc #000000 #000000;
#X obj 184 107 bng 19 250 50 0 empty empty 1920x1080 25 11 0 12 #fcfcfc #000000 #000000;
#X obj 184 152 bng 19 250 50 0 empty empty 960x540 25 11 0 12 #fcfcfc #000000 #000000;
#X msg 401 -39 reset \, dimen 1920 1080;
#X msg 411 -19 reset \, dimen 960 540;
#X obj 219 12 loadbang;
#X connect 1 0 2 0;
#X connect 2 0 3 0;
#X connect 2 1 4 0;
#X connect 3 0 5 0;
#X connect 4 0 5 0;
#X connect 5 0 8 0;
#X connect 6 0 8 0;
#X connect 7 0 9 0;
#X connect 8 0 7 0;
#X connect 8 1 10 0;
#X connect 10 0 11 0;
#X connect 10 1 13 0;
#X connect 11 0 12 0;
#X connect 12 0 15 0;
#X connect 13 0 14 0;
#X connect 14 0 15 0;
#X connect 15 0 16 0;
#X connect 16 0 0 0;
#X connect 17 0 7 0;
#X connect 18 0 7 0;
#X connect 19 0 17 0;
#X connect 20 0 18 0;
#X connect 21 0 23 0;
#X connect 22 0 24 0;
#X connect 23 0 7 0;
#X connect 24 0 7 0;
#X connect 25 0 22 0;
#X coords 0 -1 1 1 180 120 1 100 100;
#X restore -75 61 pd gemwin;
#X obj -265 90 00kaamera3;
#N canvas 962 416 450 300 ekraan 0;
#X obj 114 149 pix_texture;
#X obj 114 184 rectangle 8 4.5;
#X obj 113 7 inlet;
#X obj 114 33 separator;
#X obj 40 25 gemhead;
#X connect 0 0 1 0;
#X connect 2 0 3 0;
#X connect 3 0 0 0;
#X connect 4 0 0 0;
#X coords 0 -1 1 1 180 30 1 100 100;
#X restore -265 533 pd ekraan;
#N canvas 0 25 1440 771 parameetrid 0;
#X obj 404 481 outlet;
#X obj 112 145 hradio 19 1 0 9 empty empty reageerimiskiirus 0 -10 0 12 #fcfcfc #000000 #000000 0;
#X obj 60 478 outlet;
#X obj 155 479 outlet;
#X obj 280 482 outlet;
#X obj 60 349 inlet;
#X text 48 478 X;
#X text 143 481 Y;
#X text 268 480 Z;
#X obj 60 426 line;
#X obj 16 299 + 1;
#X obj 60 402 pack f f;
#X obj 154 423 line, f 8;
#X obj 154 401 pack f f;
#X obj 278 420 line, f 8;
#X obj 278 398 pack f f;
#X obj 60 375 clip 0 1;
#X obj 154 375 clip 0 1;
#X obj 278 375 clip 0 1;
#X obj 119 239 hsl 162 19 0 1 0 0 empty empty X\ max -15 10 0 15 #fcfcfc #000000 #000000 0 1;
#X obj 119 176 hsl 162 19 0 1 0 0 empty empty Z\ max -15 10 0 15 #fcfcfc #000000 #000000 0 1;
#X obj 292 127 vsl 20 160 1 0 0 0 empty empty Y 5 15 0 15 #fcfcfc #000000 #000000 0 1;
#X obj 16 320 * 100;
#X obj 119 269 hsl 162 19 0 1 0 0 empty empty X\ min -15 10 0 15 #fcfcfc #000000 #000000 0 1;
#X obj 405 351 inlet, f 6;
#X obj 154 350 inlet;
#X obj 278 350 inlet;
#X obj 322 127 vsl 20 160 1 0 0 0 empty empty Y 5 15 0 15 #fcfcfc #000000 #000000 0 1;
#X obj 119 206 hsl 162 19 0 1 0 0 empty empty Z\ min -15 10 0 15 #fcfcfc #000000 #000000 0 1;
#X connect 1 0 10 0;
#X connect 5 0 16 0;
#X connect 9 0 2 0;
#X connect 10 0 22 0;
#X connect 11 0 9 0;
#X connect 12 0 3 0;
#X connect 13 0 12 0;
#X connect 14 0 4 0;
#X connect 15 0 14 0;
#X connect 16 0 11 0;
#X connect 17 0 13 0;
#X connect 18 0 15 0;
#X connect 19 0 16 2;
#X connect 20 0 18 2;
#X connect 21 0 17 1;
#X connect 22 0 11 1;
#X connect 22 0 13 1;
#X connect 22 0 15 1;
#X connect 23 0 16 1;
#X connect 24 0 0 0;
#X connect 25 0 17 0;
#X connect 26 0 18 0;
#X connect 27 0 17 2;
#X connect 28 0 18 1;
#X coords 0 -1 1 1 250 200 1 100 100;
#X restore 599 420 pd parameetrid;
#N canvas 0 25 1440 771 AjaB+aeg 0;
#X obj 291 515 outlet;
#X obj 172 135 hradio 19 1 0 9 empty empty reageerimiskiirus 0 -10 0 12 #fcfcfc #000000 #000000 0;
#X obj 57 511 outlet;
#X obj 52 230 inlet;
#X obj 59 171 + 1;
#X obj 59 192 * 100;
#X obj 96 383 > 0.1;
#X obj 96 445 &&, f 17;
#X obj 57 477 spigot;
#X obj 180 159 hsl 162 19 0 1 0 0 empty empty A\ min -15 10 0 15 #fcfcfc #000000 #000000 0 1;
#X obj 292 229 inlet, f 6;
#X obj 96 406 delay 100;
#X obj 212 232 inlet;
#X obj 213 406 > 0.1;
#X obj 181 186 hsl 162 19 0 1 0 0 empty empty B\ min -15 10 0 15 #fcfcfc #000000 #000000 0 1;
#X floatatom 294 114 5 0 0 1 ms - - 0;
#X text 300 250 aeg, f 5;
#X obj 95 360 spigot;
#X obj 105 288 select 100;
#X obj 105 316 t 1;
#X obj 134 338 t 0;
#X text 45 511 comment;
#X text 38 230 A;
#X text 197 232 B;
#X obj 134 311 select 102;
#X connect 1 0 4 0;
#X connect 3 0 17 0;
#X connect 3 0 8 0;
#X connect 4 0 5 0;
#X connect 5 0 11 1;
#X connect 5 0 15 0;
#X connect 6 0 11 0;
#X connect 7 0 8 1;
#X connect 8 0 2 0;
#X connect 9 0 6 1;
#X connect 10 0 18 0;
#X connect 10 0 0 0;
#X connect 10 0 24 0;
#X connect 11 0 7 0;
#X connect 12 0 13 0;
#X connect 13 0 7 1;
#X connect 14 0 13 1;
#X connect 17 0 6 0;
#X connect 18 0 19 0;
#X connect 19 0 17 1;
#X connect 20 0 17 1;
#X connect 24 0 20 0;
#X coords 0 -1 1 1 250 110 1 100 100;
#X restore 329 420 pd AjaB+aeg;
#N canvas 395 25 1045 771 XYZ+aeg_vahed2 0;
#X obj 374 452 outlet;
#X obj 60 451 outlet;
#X obj 152 449 outlet;
#X obj 241 449 outlet;
#X obj 60 349 inlet;
#X text 48 451 X;
#X text 140 450 Y;
#X text 229 449 Z;
#X obj 60 426 line, f 8;
#X obj 60 402 pack f f;
#X obj 154 423 line, f 8;
#X obj 154 401 pack f f;
#X obj 240 420 line, f 8;
#X obj 240 398 pack f f;
#X obj 60 375 clip 0 1;
#X obj 154 375 clip 0 1;
#X obj 240 375 clip 0 1;
#X obj 388 260 * 100;
#X obj 375 348 inlet, f 6;
#X obj 154 350 inlet;
#X obj 240 350 inlet;
#X floatatom 259 109 5 10 1000 1 ms - - 0;
#X floatatom 182 187 5 0 1 0 min\ X - - 0;
#X floatatom 182 167 5 0 1 0 max\ X - - 0;
#X floatatom 239 168 5 0 1 0 Y - - 0;
#X floatatom 239 188 5 0 1 0 Y - - 0;
#X floatatom 296 188 5 0 1 0 Z - - 0;
#X floatatom 296 168 5 0 1 0 Z - - 0;
#X obj 388 209 t b f;
#X msg 388 235 1;
#X obj 422 235 i;
#X floatatom 182 137 5 0 1 0 sisend\ X - - 0;
#X floatatom 239 138 5 0 1 0 Y - - 0;
#X floatatom 296 138 5 0 1 0 Z - - 0;
#X connect 4 0 14 0;
#X connect 8 0 1 0;
#X connect 9 0 8 0;
#X connect 10 0 2 0;
#X connect 11 0 10 0;
#X connect 12 0 3 0;
#X connect 13 0 12 0;
#X connect 14 0 9 0;
#X connect 15 0 11 0;
#X connect 16 0 13 0;
#X connect 17 0 9 1;
#X connect 17 0 11 1;
#X connect 17 0 13 1;
#X connect 18 0 0 0;
#X connect 19 0 15 0;
#X connect 20 0 16 0;
#X connect 21 0 28 0;
#X connect 22 0 14 1;
#X connect 23 0 14 2;
#X connect 24 0 16 1;
#X connect 25 0 16 2;
#X connect 26 0 15 1;
#X connect 27 0 15 2;
#X connect 28 0 29 0;
#X connect 28 1 30 0;
#X connect 29 0 17 0;
#X connect 30 0 17 1;
#X coords 0 -1 1 1 250 119 1 100 100;
#X restore 330 542 pd XYZ+aeg_vahed2;
#N canvas 0 25 1440 771 XYZ+aeg_vahed 0;
#X obj 384 478 outlet;
#X obj 112 145 hradio 19 1 0 9 empty empty reageerimiskiirus 0 -10 0 12 #fcfcfc #000000 #000000 0;
#X obj 60 478 outlet;
#X obj 155 479 outlet;
#X obj 280 482 outlet;
#X obj 60 349 inlet;
#X text 48 478 X;
#X text 143 481 Y;
#X text 268 480 Z;
#X obj 60 426 line;
#X obj 16 299 + 1;
#X obj 60 402 pack f f;
#X obj 154 423 line, f 8;
#X obj 154 401 pack f f;
#X obj 278 420 line, f 8;
#X obj 278 398 pack f f;
#X obj 60 375 clip 0 1;
#X obj 154 375 clip 0 1;
#X obj 278 375 clip 0 1;
#X obj 119 239 hsl 162 19 0 1 0 0 empty empty X\ max -15 10 0 15 #fcfcfc #000000 #000000 0 1;
#X obj 119 176 hsl 162 19 0 1 0 0 empty empty Z\ max -15 10 0 15 #fcfcfc #000000 #000000 0 1;
#X obj 292 127 vsl 20 160 1 0 0 0 empty empty Y 5 15 0 15 #fcfcfc #000000 #000000 0 1;
#X obj 16 320 * 100;
#X obj 119 269 hsl 162 19 0 1 0 0 empty empty X\ min -15 10 0 15 #fcfcfc #000000 #000000 0 1;
#X obj 385 348 inlet, f 6;
#X obj 154 350 inlet;
#X obj 278 350 inlet;
#X obj 322 127 vsl 20 160 1 0 0 0 empty empty Y 5 15 0 15 #fcfcfc #000000 #000000 0 1;
#X obj 119 206 hsl 162 19 0 1 0 0 empty empty Z\ min -15 10 0 15 #fcfcfc #000000 #000000 0 1;
#X connect 1 0 10 0;
#X connect 5 0 16 0;
#X connect 9 0 2 0;
#X connect 10 0 22 0;
#X connect 11 0 9 0;
#X connect 12 0 3 0;
#X connect 13 0 12 0;
#X connect 14 0 4 0;
#X connect 15 0 14 0;
#X connect 16 0 11 0;
#X connect 17 0 13 0;
#X connect 18 0 15 0;
#X connect 19 0 16 2;
#X connect 20 0 18 2;
#X connect 21 0 17 1;
#X connect 22 0 11 1;
#X connect 22 0 13 1;
#X connect 22 0 15 1;
#X connect 23 0 16 1;
#X connect 24 0 0 0;
#X connect 25 0 17 0;
#X connect 26 0 18 0;
#X connect 27 0 17 2;
#X connect 28 0 18 1;
#X coords 0 -1 1 1 250 200 1 100 100;
#X restore 63 424 pd XYZ+aeg_vahed;
#N canvas 58 226 450 278 (subpatch) 0;
#X array cpu1min 60 float 3;
#A 0 6 5 6 4 6 4 6 3 6 5 6 5 6 4 6 5 6 5 6 6 5 6 6 6 5 6 5 5 5 4 4 5 5 7 3 6 5 5 6 6 4 7 4 4 6 5 5 5 4 2 5 5 5 6 5 6 5 5 5 5;
#X coords 0 200 60 0 201 64 1 0 0;
#X restore 113 61 graph;
#N canvas 678 29 762 511 heli_parameetrid 0;
#X obj 448 174 inlet;
#X text 451 151 aeg;
#X obj 84 178 r vX;
#X obj 128 178 r vY;
#X obj 236 178 r pY;
#X obj 348 178 r aeg;
#X text 60 11 Heli - kui tuvastatud liikumine asetseb x teljel tsentrist vasakul \, tõuseb helinivoo stereosüsteemi vasakus kanalis. Kui liikumine on tsentrist paremal \, siis vastavalt paremas kanalis. Kui Z väärtus on suurem seatud piirist \, käivitub uus helifail ja eelmise esitusnivoo hakkab alanema.;
#X obj 304 177 r Z;
#X floatatom 84 202 5 0 0 0 - - - 0;
#X floatatom 128 202 5 0 0 0 - - - 0;
#X floatatom 236 202 5 0 0 0 - - - 0;
#X floatatom 358 200 5 0 0 0 - - - 0;
#X obj 84 225 / 1;
#X floatatom 84 249 5 0 0 0 - - - 0;
#X floatatom 186 200 5 0 0 0 - - - 0;
#X obj 186 176 r pX;
#X floatatom 304 251 5 0 0 0 - - - 0;
#X obj 304 227 moses 0.5;
#X floatatom 365 251 5 0 0 0 - - - 0;
#X obj 90 375 pack f f f;
#X obj 150 463 print;
#X obj 98 349 t b f;
#X obj 152 344 t b f;
#X obj 89 460 outlet;
#X msg 90 399 heli \$1 \$2 \$3;
#X connect 2 0 8 0;
#X connect 3 0 9 0;
#X connect 4 0 10 0;
#X connect 7 0 11 0;
#X connect 7 0 17 0;
#X connect 8 0 12 0;
#X connect 11 0 17 0;
#X connect 12 0 13 0;
#X connect 13 0 19 0;
#X connect 14 0 21 0;
#X connect 15 0 14 0;
#X connect 17 0 16 0;
#X connect 17 1 18 0;
#X connect 17 1 22 0;
#X connect 19 0 24 0;
#X connect 21 0 19 0;
#X connect 21 1 19 1;
#X connect 22 0 19 0;
#X connect 22 1 19 2;
#X connect 24 0 23 0;
#X coords 0 511 1 510 240 60 0;
#X restore 120 364 pd heli_parameetrid;
#X f 31;
#N canvas 990 139 450 300 cpu1min_w 0;
#X obj 1 70 inlet;
#X obj 57 72 inlet;
#X obj -16 249 tabwrite cpu1min;
#X obj -17 208 f;
#X obj 60 216 t b f;
#X floatatom 237 107 5 0 0 0 - - - 0;
#X obj 57 128 + 1;
#X obj 57 97 i;
#X obj 58 159 mod 60;
#X connect 0 0 3 1;
#X connect 1 0 7 0;
#X connect 3 0 2 0;
#X connect 4 0 3 0;
#X connect 4 1 2 1;
#X connect 6 0 8 0;
#X connect 6 0 7 1;
#X connect 7 0 6 0;
#X connect 8 0 5 0;
#X connect 8 0 4 0;
#X coords 0 -1 1 1 180 30 1 100 100;
#X restore 133 165 pd cpu1min_w;
#N canvas 71 114 1322 684 vXYZ 0;
#X obj 105 272 outlet;
#X obj 170 272 outlet;
#X obj 109 186 hsl 120 60 0 1 0 0 empty empty X 10 50 0 15 #fcfcfc #000000 #000000 0 1;
#X obj 106 122 vsl 125 60 1 0 0 0 empty empty Y 10 50 0 15 #fcfcfc #000000 #000000 0 1;
#X obj 65 61 r vX;
#X obj 101 62 r vY;
#X obj 237 273 outlet;
#X obj 299 273 outlet;
#X obj 366 272 outlet;
#X obj 235 186 hsl 120 60 0 1 0 0 empty empty X 10 50 0 15 #fcfcfc #000000 #000000 0 1;
#X obj 232 122 vsl 125 60 1 0 0 0 empty empty Y 10 50 0 15 #fcfcfc #000000 #000000 0 1;
#X obj 363 122 vsl 30 120 0 1 0 0 empty empty Z 9 18 0 20 #fcfcfc #000000 #000000 0 1;
#X obj 194 68 r pX;
#X obj 232 68 r pY;
#X obj 361 67 r Z;
#X obj 425 66 inlet;
#X obj 8 59 inlet;
#X obj 427 270 outlet;
#X obj 8 83 print XYZA;
#X connect 2 0 0 0;
#X connect 3 0 1 0;
#X connect 4 0 2 0;
#X connect 5 0 3 0;
#X connect 9 0 6 0;
#X connect 10 0 7 0;
#X connect 11 0 8 0;
#X connect 12 0 9 0;
#X connect 13 0 10 0;
#X connect 14 0 11 0;
#X connect 15 0 17 0;
#X connect 16 0 18 0;
#X coords 0 -1 1 1 300 150 1 100 100;
#X restore -265 572 pd vXYZ;
#N canvas 0 158 1440 485 vXYZ_pXYZ_aeg 0;
#X obj 150 431 outlet;
#X obj 244 399 outlet;
#X obj 150 299 inlet;
#X text 138 431 X;
#X text 232 399 Y;
#X obj 244 375 clip 0 1;
#X obj 244 300 inlet;
#X obj 150 375 clip 0 0.5;
#X obj 150 399 * 2;
#X obj 626 445 outlet;
#X obj 320 451 outlet;
#X obj 414 399 outlet;
#X obj 540 399 outlet;
#X text 308 451 X;
#X text 402 399 Y;
#X text 529 399 Z;
#X obj 414 375 clip 0 1;
#X obj 540 375 clip 0 1;
#X obj 626 301 inlet, f 6;
#X obj 320 375 clip 0.5 1;
#X obj 320 398 - 0.5;
#X obj 320 421 * 2;
#X obj 172 576 s vX;
#X obj 246 577 s vY;
#X obj 325 576 s pX;
#X obj 418 576 s pY;
#X obj 601 576 s aeg;
#X obj 529 576 s Z;
#X obj 346 303 inlet;
#X connect 2 0 7 0;
#X connect 2 0 19 0;
#X connect 5 0 1 0;
#X connect 5 0 23 0;
#X connect 6 0 5 0;
#X connect 6 0 16 0;
#X connect 7 0 8 0;
#X connect 8 0 0 0;
#X connect 8 0 22 0;
#X connect 16 0 11 0;
#X connect 16 0 25 0;
#X connect 17 0 12 0;
#X connect 17 0 27 0;
#X connect 18 0 9 0;
#X connect 18 0 26 0;
#X connect 19 0 20 0;
#X connect 20 0 21 0;
#X connect 21 0 10 0;
#X connect 21 0 24 0;
#X connect 28 0 17 0;
#X restore -211 503 pd vXYZ_pXYZ_aeg;
#X f 26;
#X obj -259 808 0ab, f 22;
#X obj -259 938 print;
#N canvas 1007 162 1440 771 udpSend 0;
#X obj -242 100 inlet;
#X obj -91 245 outlet;
#X obj -128 189 netsend -u -b;
#X msg -122 165 disconnect;
#X msg -128 143 connect 192.168.10.176 3000 3001;
#X obj 3 14 tgl 19 0 empty empty empty 0 -10 0 12 #fcfcfc #000000 #000000 0 1;
#X obj 3 14 tgl 19 0 empty empty empty 0 -10 0 12 #fcfcfc #000000 #000000 0 1;
#X obj -40 243 print netsend return;
#X obj -242 159 fudiformat -u;
#X text 114 143 saadab 3000 \, kuulab 3001;
#X obj -41 217 fudiparse;
#X connect 0 0 8 0;
#X connect 2 0 5 0;
#X connect 2 0 6 0;
#X connect 2 1 10 0;
#X connect 3 0 2 0;
#X connect 4 0 2 0;
#X connect 8 0 2 0;
#X connect 10 0 7 0;
#X connect 10 0 1 0;
#X coords 0 771 1 770 240 60 0;
#X restore 120 390 pd udpSend;
#N canvas 121 146 919 520 udpReceive 0;
#X msg 18 -66 listen 5000;
#X msg 30 -38 listen 0;
#X text 97 -39 stop listening;
#X text 146 -11 UDP packets \, binary output;
#X text 105 -66 listen on port 5000;
#X obj 18 191 list;
#X listbox 18 33 71 0 0 0 - - - 0;
#X obj 18 120 fudiparse;
#X obj 68 80 print FUDI-message;
#X obj 38 150 print parse-output;
#X obj 18 -101 loadbang;
#X obj 18 -11 netreceive -u -b;
#X obj 18 79 t l l;
#X obj 256 214 outlet;
#X connect 0 0 11 0;
#X connect 1 0 11 0;
#X connect 5 0 13 0;
#X connect 6 0 12 0;
#X connect 7 0 5 0;
#X connect 7 0 9 0;
#X connect 10 0 0 0;
#X connect 11 0 6 0;
#X connect 12 0 7 0;
#X connect 12 1 8 0;
#X restore 433 310 pd udpReceive;
#X listbox 432 338 23 0 0 0 - - - 0;
#N canvas 211 25 1229 773 valgus_parameetrid 0;
#X obj 448 296 inlet;
#X text 451 273 aeg;
#X obj 84 300 r vX;
#X obj 128 300 r vY;
#X obj 236 300 r pY;
#X obj 348 300 r aeg;
#X obj 304 299 r Z;
#X floatatom 84 324 5 0 0 0 - - - 0;
#X floatatom 128 324 5 0 0 0 - - - 0;
#X floatatom 236 324 5 0 0 0 - - - 0;
#X floatatom 358 322 5 0 0 0 - - - 0;
#X obj 84 347 / 1;
#X floatatom 84 371 5 0 0 0 - - - 0;
#X floatatom 186 322 5 0 0 0 - - - 0;
#X obj 186 298 r pX;
#X floatatom 304 373 5 0 0 0 - - - 0;
#X obj 304 349 moses 0.5;
#X floatatom 365 373 5 0 0 0 - - - 0;
#X obj 90 497 pack f f f;
#X obj 150 585 print;
#X obj 96 471 t b f;
#X obj 138 471 t b f;
#X obj 89 582 outlet;
#X text 54 236 Valgus – kui on tuvastatud liikumine \, käivitub käsk a. Kui seejärel on tuvastatud liikumine teljel x tsentrist vasakule \, käivitub käsk b ja kui paremale \, siis käsk c.;
#X msg 90 521 valgus \$1 \$2 \$3;
#X connect 2 0 7 0;
#X connect 3 0 8 0;
#X connect 4 0 9 0;
#X connect 6 0 10 0;
#X connect 6 0 16 0;
#X connect 6 0 18 0;
#X connect 7 0 11 0;
#X connect 10 0 16 0;
#X connect 11 0 12 0;
#X connect 12 0 20 0;
#X connect 13 0 21 0;
#X connect 14 0 13 0;
#X connect 16 0 15 0;
#X connect 16 1 17 0;
#X connect 18 0 24 0;
#X connect 20 0 18 0;
#X connect 20 1 18 1;
#X connect 21 0 18 0;
#X connect 21 1 18 2;
#X connect 24 0 22 0;
#X coords 0 386.5 1 385.5 240 60 0;
#X restore 104 332 pd valgus_parameetrid;
#X f 31;
#N canvas 198 25 1229 773 video_parameetrid 0;
#X obj 448 296 inlet;
#X text 451 273 aeg;
#X obj 84 300 r vX;
#X obj 128 300 r vY;
#X obj 236 300 r pY;
#X obj 348 300 r aeg;
#X obj 304 299 r Z;
#X floatatom 84 324 5 0 0 0 - - - 0;
#X floatatom 128 324 5 0 0 0 - - - 0;
#X floatatom 236 324 5 0 0 0 - - - 0;
#X floatatom 358 322 5 0 0 0 - - - 0;
#X obj 84 347 / 1;
#X floatatom 84 371 5 0 0 0 - - - 0;
#X floatatom 186 322 5 0 0 0 - - - 0;
#X obj 186 298 r pX;
#X floatatom 304 373 5 0 0 0 - - - 0;
#X obj 304 349 moses 0.5;
#X floatatom 365 373 5 0 0 0 - - - 0;
#X obj 150 585 print;
#X obj 96 471 t b f;
#X obj 138 471 t b f;
#X obj 89 582 outlet;
#X text 61 175 Video – kui on tuvastatud liikumine \, käivitub käsk e \, kui tuvastatud regioon kasvab (z väärtus) \, käivitub käsk f koos muutumisparameetriga \, kui tuvastatud liikumise kiirus x teljel on üle seatud piirväärtuse \, käivitub käsk g koos muutumisparameetriga.;
#X text 506 411 kiirus/aeg;
#X obj 451 425 / 1;
#N canvas 351 76 1038 647 vX_pX 0;
#X obj 60 105 >;
#X obj 90 81 f;
#X obj 61 81 f;
#X obj 143 27 metro 250;
#X obj 92 105 <;
#X obj 10 -25 inlet;
#X obj 111 -24 inlet;
#X obj -9 80 f;
#X obj 22 80 f;
#X obj -10 55 t b b;
#X obj -9 104 >;
#X obj 139 108 f;
#X obj 170 108 f;
#X obj 138 83 t b b;
#X obj 139 132 >;
#X obj -4 203 outlet;
#X obj 46 203 outlet;
#X obj 96 203 outlet;
#X obj 146 203 outlet;
#X obj 143 6 loadbang;
#X connect 0 0 16 0;
#X connect 1 0 0 1;
#X connect 1 0 4 1;
#X connect 2 0 0 0;
#X connect 2 0 4 0;
#X connect 3 0 2 0;
#X connect 3 0 1 0;
#X connect 3 0 9 0;
#X connect 3 0 13 0;
#X connect 4 0 17 0;
#X connect 5 0 2 1;
#X connect 5 0 7 1;
#X connect 6 0 1 1;
#X connect 6 0 11 1;
#X connect 7 0 8 1;
#X connect 7 0 10 0;
#X connect 8 0 10 1;
#X connect 9 0 7 0;
#X connect 9 1 8 0;
#X connect 10 0 15 0;
#X connect 11 0 12 1;
#X connect 11 0 14 0;
#X connect 12 0 14 1;
#X connect 13 0 11 0;
#X connect 13 1 12 0;
#X connect 14 0 18 0;
#X connect 19 0 3 0;
#X restore 281 430 pd vX_pX;
#X obj 317 487 tgl 19 0 empty empty empty 0 -10 0 12 #fcfcfc #000000 #000000 0 1;
#X obj 285 487 tgl 19 0 empty empty empty 0 -10 0 12 #fcfcfc #000000 #000000 0 1;
#X obj 258 477 tgl 19 0 empty empty vX\ kiirendus 0 -10 0 12 #fcfcfc #000000 #000000 0 1;
#X obj 348 480 tgl 19 0 empty empty vY\ kiirendus 0 -10 0 12 #fcfcfc #000000 #000000 0 1;
#X msg 254 522 g2;
#X msg 284 522 g3;
#X msg 318 523 g22;
#X msg 348 523 g33;
#X obj 90 497 pack f f f s;
#X msg 90 521 valgus \$1 \$2 \$3 \$4;
#X obj 179 471 t b s;
#X connect 2 0 7 0;
#X connect 3 0 8 0;
#X connect 4 0 9 0;
#X connect 6 0 10 0;
#X connect 6 0 16 0;
#X connect 6 0 34 0;
#X connect 7 0 11 0;
#X connect 10 0 16 0;
#X connect 11 0 12 0;
#X connect 12 0 19 0;
#X connect 12 0 25 0;
#X connect 13 0 20 0;
#X connect 13 0 25 1;
#X connect 14 0 13 0;
#X connect 16 0 15 0;
#X connect 16 1 17 0;
#X connect 19 0 34 0;
#X connect 19 1 34 1;
#X connect 20 0 34 0;
#X connect 20 1 34 2;
#X connect 25 0 28 0;
#X connect 25 1 27 0;
#X connect 25 2 26 0;
#X connect 25 3 29 0;
#X connect 26 0 32 0;
#X connect 27 0 31 0;
#X connect 28 0 30 0;
#X connect 29 0 33 0;
#X connect 30 0 36 0;
#X connect 31 0 36 0;
#X connect 32 0 36 0;
#X connect 33 0 36 0;
#X connect 34 0 35 0;
#X connect 35 0 21 0;
#X connect 36 0 34 0;
#X connect 36 1 34 3;
#X coords 0 386.5 1 385.5 240 60 0;
#X restore 74 302 pd video_parameetrid;
#X f 31;
#X connect 1 0 3 0;
#X connect 1 0 15 0;
#X connect 1 1 15 1;
#X connect 2 0 4 0;
#X connect 4 0 3 1;
#X connect 5 0 8 0;
#X connect 5 1 17 0;
#X connect 5 2 17 1;
#X connect 5 3 17 2;
#X connect 5 4 17 3;
#X connect 7 0 5 0;
#X connect 14 0 20 0;
#X connect 16 0 18 0;
#X connect 16 4 18 1;
#X connect 18 0 19 0;
#X connect 21 0 22 0;
#X connect 23 0 20 0;
#X connect 24 0 20 0;
