#N canvas 989 225 450 300 12;
#X obj 324 392 outlet;
#X obj 10 391 outlet;
#X obj 102 389 outlet;
#X obj 191 389 outlet;
#X obj 10 289 inlet;
#X text -2 391 X;
#X text 90 390 Y;
#X text 179 389 Z;
#X obj 10 366 line, f 8;
#X obj 10 342 pack f f;
#X obj 104 363 line, f 8;
#X obj 104 341 pack f f;
#X obj 190 360 line, f 8;
#X obj 190 338 pack f f;
#X obj 10 315 clip 0 1;
#X obj 104 315 clip 0 1;
#X obj 190 315 clip 0 1;
#X obj 338 200 * 100;
#X obj 325 288 inlet, f 6;
#X obj 104 290 inlet;
#X obj 190 290 inlet;
#X floatatom 209 49 5 10 1000 1 ms - - 0;
#X floatatom 132 127 5 0 1 0 min\ X - - 0;
#X floatatom 132 107 5 0 1 0 max\ X - - 0;
#X floatatom 189 108 5 0 1 0 Y - - 0;
#X floatatom 189 128 5 0 1 0 Y - - 0;
#X floatatom 246 128 5 0 1 0 Z - - 0;
#X floatatom 246 108 5 0 1 0 Z - - 0;
#X obj 338 149 t b f;
#X msg 338 175 1;
#X obj 372 175 i;
#X floatatom 132 77 5 0 1 0 sisend\ X - - 0;
#X floatatom 189 78 5 0 1 0 Y - - 0;
#X floatatom 246 78 5 0 1 0 Z - - 0;
#X connect 4 0 14 0;
#X connect 8 0 1 0;
#X connect 9 0 8 0;
#X connect 10 0 2 0;
#X connect 11 0 10 0;
#X connect 12 0 3 0;
#X connect 13 0 12 0;
#X connect 14 0 9 0;
#X connect 15 0 11 0;
#X connect 16 0 13 0;
#X connect 17 0 9 1;
#X connect 17 0 11 1;
#X connect 17 0 13 1;
#X connect 18 0 0 0;
#X connect 19 0 15 0;
#X connect 20 0 16 0;
#X connect 21 0 28 0;
#X connect 22 0 14 1;
#X connect 23 0 14 2;
#X connect 24 0 16 1;
#X connect 25 0 16 2;
#X connect 26 0 15 1;
#X connect 27 0 15 2;
#X connect 28 0 29 0;
#X connect 28 1 30 0;
#X connect 29 0 17 0;
#X connect 30 0 17 1;
