#N canvas 171 176 832 456 12;
#X obj 120 253 outlet;
#X obj 186 253 outlet;
#X obj 124 167 hsl 120 60 0 1 0 0 empty empty X 10 50 0 15 #fcfcfc #000000 #000000 0 1;
#X obj 122 100 vsl 125 60 1 0 0 0 empty empty Y 10 50 0 15 #fcfcfc #000000 #000000 0 1;
#X obj 87 42 r vX;
#X obj 123 43 r vY;
#X obj 257 254 outlet;
#X obj 319 254 outlet;
#X obj 386 253 outlet;
#X obj 256 169 hsl 120 60 0 1 0 0 empty empty X 10 50 0 15 #fcfcfc #000000 #000000 0 1;
#X obj 253 102 vsl 125 60 1 0 0 0 empty empty Y 10 50 0 15 #fcfcfc #000000 #000000 0 1;
#X obj 385 102 vsl 30 125 0 1 0 0 empty empty empty 0 -9 0 12 #fcfcfc #000000 #000000 0 1;
#X obj 216 49 r pX;
#X obj 254 49 r pY;
#X obj 383 48 r Z;
#X obj 447 47 inlet;
#X obj 30 40 inlet;
#X obj 447 251 outlet;
#X obj 30 64 print XYZA;
#N canvas 0 158 1440 485 vXYZ_pXYZ_aeg 0;
#X obj 150 431 outlet;
#X obj 244 399 outlet;
#X obj 150 299 inlet;
#X text 138 431 X;
#X text 232 399 Y;
#X obj 244 375 clip 0 1;
#X obj 244 300 inlet;
#X obj 150 375 clip 0 0.5;
#X obj 150 399 * 2;
#X obj 626 445 outlet;
#X obj 320 451 outlet;
#X obj 414 399 outlet;
#X obj 540 399 outlet;
#X text 308 451 X;
#X text 402 399 Y;
#X text 529 399 Z;
#X obj 414 375 clip 0 1;
#X obj 540 375 clip 0 1;
#X obj 626 301 inlet, f 6;
#X obj 320 375 clip 0.5 1;
#X obj 320 398 - 0.5;
#X obj 320 421 * 2;
#X obj 172 576 s vX;
#X obj 246 577 s vY;
#X obj 325 576 s pX;
#X obj 418 576 s pY;
#X obj 601 576 s aeg;
#X obj 529 576 s Z;
#X obj 346 303 inlet;
#X connect 2 0 7 0;
#X connect 2 0 19 0;
#X connect 5 0 1 0;
#X connect 5 0 23 0;
#X connect 6 0 5 0;
#X connect 6 0 16 0;
#X connect 7 0 8 0;
#X connect 8 0 0 0;
#X connect 8 0 22 0;
#X connect 16 0 11 0;
#X connect 16 0 25 0;
#X connect 17 0 12 0;
#X connect 17 0 27 0;
#X connect 18 0 9 0;
#X connect 18 0 26 0;
#X connect 19 0 20 0;
#X connect 20 0 21 0;
#X connect 21 0 10 0;
#X connect 21 0 24 0;
#X connect 28 0 17 0;
#X restore 183 12 pd vXYZ_pXYZ_aeg;
#X f 26;
#X text 375 15 < kopeeri lõuendile \, kust signaal tuleb;
#X connect 2 0 0 0;
#X connect 3 0 1 0;
#X connect 4 0 2 0;
#X connect 5 0 3 0;
#X connect 9 0 6 0;
#X connect 10 0 7 0;
#X connect 11 0 8 0;
#X connect 12 0 9 0;
#X connect 13 0 10 0;
#X connect 14 0 11 0;
#X connect 15 0 17 0;
#X connect 16 0 18 0;
